<?xml version="1.0"?>
<svg xmlns="http://www.w3.org/2000/svg" xmlns:xlink="http://www.w3.org/1999/xlink" xmlns:svgjs="http://svgjs.com/svgjs" version="1.1" width="512" height="512" x="0" y="0" viewBox="0 0 512 512" style="enable-background:new 0 0 512 512" xml:space="preserve" class=""><g><g xmlns="http://www.w3.org/2000/svg"><path d="M169.54,366.843h0a32,32,0,1,0,0-45.255A31.9,31.9,0,0,0,169.541,366.844ZM180.854,332.9a16,16,0,1,1,0,22.628h0A16.021,16.021,0,0,1,180.854,332.9Z" fill="#ffffff" data-original="#000000" style="" class=""/><path d="M90.344,434.726a8,8,0,1,0,11.314,0A8,8,0,0,0,90.344,434.726Z" fill="#ffffff" data-original="#000000" style="" class=""/><path d="M293.991,253.706a8,8,0,1,0-11.314,0A8,8,0,0,0,293.991,253.706Z" fill="#ffffff" data-original="#000000" style="" class=""/><path d="M293.991,446.039a8,8,0,1,0-11.314,0A8,8,0,0,0,293.991,446.039Z" fill="#ffffff" data-original="#000000" style="" class=""/><path d="M90.344,242.392a8,8,0,1,0,11.314,0A8,8,0,0,0,90.344,242.392Z" fill="#ffffff" data-original="#000000" style="" class=""/><path d="M312,120H104.078a8,8,0,0,0-8,8v31a8,8,0,0,0,16,0V136H312a8,8,0,0,0,0-16Z" fill="#ffffff" data-original="#000000" style="" class=""/><path d="M408,80a72,72,0,1,0,72,72A72.081,72.081,0,0,0,408,80Zm0,128a56,56,0,1,1,56-56A56.063,56.063,0,0,1,408,208Z" fill="#ffffff" data-original="#000000" style="" class=""/><path d="M472,8H40A32.036,32.036,0,0,0,8,40V408a32.057,32.057,0,0,0,24.06,31,63.959,63.959,0,1,0,127.9,1H224a7.026,7.026,0,0,0,.8-.04v.27A63.966,63.966,0,1,0,352.73,440H472a32.036,32.036,0,0,0,32-32V40A32.036,32.036,0,0,0,472,8ZM129.94,474.32a48,48,0,1,1-31.29-81.84L73.37,417.75a32.012,32.012,0,0,0,0,45.26A31.828,31.828,0,0,0,96,472.38a31.817,31.817,0,0,0,22.63-9.37l25.28-25.28A48.281,48.281,0,0,1,129.94,474.32ZM161.17,424a64.236,64.236,0,0,1,61.99,0Zm75.68-10.38h-.02a80.137,80.137,0,0,0-89.43.07,7.76,7.76,0,0,0-1.32.34,7.976,7.976,0,0,0-4.46,3.94,78.808,78.808,0,0,0-6.02,5.44L107.31,451.7a16,16,0,1,1-22.62-22.63l28.28-28.29a79.352,79.352,0,0,0,5.45-6.02,7.935,7.935,0,0,0,3.93-4.45,7.3,7.3,0,0,0,.33-1.28,80.013,80.013,0,0,0-4.82-96.02l-.03-.04h-.01c-1.53-1.83-3.14-3.61-4.85-5.32L84.69,259.36a15.995,15.995,0,0,1,22.62-22.62l28.29,28.28a79.837,79.837,0,0,0,10.29,8.67l.45.34.05.04c.02.01.05.01.07.02a80.193,80.193,0,0,0,91.17.17c.02,0,.04-.01.06-.01l.02-.01.59-.45c1.58-1.11,3.12-2.27,4.63-3.51l.13-.1.02-.02c0-.01.01-.01.01-.02,1.94-1.6,3.83-3.3,5.65-5.12l28.28-28.28a16,16,0,0,1,22.63,22.62l-28.29,28.29c-1.81,1.81-3.53,3.71-5.15,5.66a.01.01,0,0,1-.01.01h-.01l-.13.17c-1.22,1.49-2.37,3.03-3.48,4.59l-.44.58v.01c0,.02,0,.03-.01.04a80,80,0,0,0,.17,91.25c.01.02.01.04.02.06l.42.56c.79,1.1,1.6,2.18,2.44,3.24l.25.33.11.15a.01.01,0,0,1,.01.01.037.037,0,0,0,.03.01,79.879,79.879,0,0,0,5.78,6.46l28.29,28.29a16,16,0,0,1-22.63,22.63l-28.28-28.29c-1.71-1.71-3.49-3.31-5.31-4.83-.01-.01-.01-.01-.01-.02v-.01l-.22-.17q-3-2.475-6.16-4.62ZM73.37,270.68l24.87,24.86a47.987,47.987,0,1,1,45.65-44.86l-25.26-25.26a32,32,0,0,0-45.26,45.26Zm237.59-45.26a32.043,32.043,0,0,0-45.25,0l-24.85,24.85a48.006,48.006,0,1,1,45.26,45.25l24.84-24.84a32.012,32.012,0,0,0,0-45.26Zm11.75,248.9a47.978,47.978,0,0,1-81.87-36.17l24.87,24.86a32,32,0,0,0,45.25-45.26L285.71,392.5q1.47-.09,2.94-.09a47.97,47.97,0,0,1,34.06,81.91ZM488,408a16.021,16.021,0,0,1-16,16H352a8.813,8.813,0,0,0-1.36.12v-.01a63.521,63.521,0,0,0-16.62-28.98,64.353,64.353,0,0,0-60.34-16.95,64.024,64.024,0,0,1,.25-68.32,63.041,63.041,0,0,0,14.68,1.72,63.969,63.969,0,1,0-62.11-49.13,64.2,64.2,0,0,1-68.29.24,64.041,64.041,0,1,0-62.05,48.89,63.058,63.058,0,0,0,14.3-1.63,64.06,64.06,0,0,1,.25,68.15,64.375,64.375,0,0,0-59.96,17.03,63.577,63.577,0,0,0-16.31,27.85A16,16,0,0,1,24,408V72H488Zm0-352H24V40A16.021,16.021,0,0,1,40,24H472a16.021,16.021,0,0,1,16,16Z" fill="#ffffff" data-original="#000000" style="" class=""/><path d="M48,48H96a8,8,0,0,0,0-16H48a8,8,0,0,0,0,16Z" fill="#ffffff" data-original="#000000" style="" class=""/><path d="M120,48h8a8,8,0,0,0,0-16h-8a8,8,0,0,0,0,16Z" fill="#ffffff" data-original="#000000" style="" class=""/><path d="M464.078,344h-88a8,8,0,0,0,0,16h88a8,8,0,0,0,0-16Z" fill="#ffffff" data-original="#000000" style="" class=""/><path d="M376.078,384h56a8,8,0,0,0,0-16h-56a8,8,0,0,0,0,16Z" fill="#ffffff" data-original="#000000" style="" class=""/><path d="M464.078,392h-88a8,8,0,0,0,0,16h88a8,8,0,0,0,0-16Z" fill="#ffffff" data-original="#000000" style="" class=""/><path d="M464.078,368h-8a8,8,0,0,0,0,16h8a8,8,0,0,0,0-16Z" fill="#ffffff" data-original="#000000" style="" class=""/><circle cx="408" cy="175" r="8" fill="#ffffff" data-original="#000000" style="" class=""/><path d="M429.336,151.15a32,32,0,0,0-42.672,0,8,8,0,0,0,10.671,11.922,16,16,0,0,1,21.33,0,8,8,0,0,0,10.671-11.922Z" fill="#ffffff" data-original="#000000" style="" class=""/><path d="M445.335,133.262a56,56,0,0,0-74.67,0,8,8,0,0,0,10.67,11.922,40,40,0,0,1,53.33,0,8,8,0,1,0,10.67-11.922Z" fill="#ffffff" data-original="#000000" style="" class=""/></g></g></svg>
