<svg height="512" viewBox="0 0 512 512" width="512" xmlns="http://www.w3.org/2000/svg"><g><g><g fill="#57a4ff"><path d="m497 40v24h-480v-24a24.006 24.006 0 0 1 24-24h432a24.006 24.006 0 0 1 24 24z"/><path d="m114.05 387.36a72.262 72.262 0 0 1 -6.74 7.77l-28.28 28.28a23.849 23.849 0 0 0 -5.52 8.59h-32.51c-.12 0-.25 0-.37-.01a56.008 56.008 0 0 1 73.42-44.63z"/><path d="m56.4 287.22a56 56 0 1 1 92.5-21.21 73.339 73.339 0 0 1 -7.64-6.65l-28.29-28.28a24 24 0 1 0 -33.94 33.94l28.28 28.28a72.978 72.978 0 0 1 6.49 7.43 56.009 56.009 0 0 1 -57.4-13.51z"/><path d="m175.2 361.19a24 24 0 1 1 33.94 0 23.985 23.985 0 0 1 -33.94 0z"/><path d="m243.08 429.07 2.93 2.93h-107.68l2.93-2.93a71.925 71.925 0 0 1 101.82 0z"/><path d="m235.78 265.75a55.988 55.988 0 1 1 34.84 34.86 73.113 73.113 0 0 1 6.4-7.31l28.28-28.28a24 24 0 1 0 -33.94-33.94l-28.28 28.28a72.9 72.9 0 0 1 -7.3 6.39z"/><path d="m328.36 400.78a55.693 55.693 0 0 1 15.77 31.22h-33.31a23.849 23.849 0 0 0 -5.52-8.59l-28.28-28.28a72.273 72.273 0 0 1 -6.65-7.65 55.987 55.987 0 0 1 57.99 13.3z"/><circle cx="409" cy="152" r="64"/><circle cx="409" cy="152" r="64"/></g><path d="m377.078 376h56" fill="none"/><path d="m465.078 376h-8" fill="none"/><g fill="#57a4ff"><circle cx="96" cy="440.385" r="8.003"/><circle cx="96" cy="440.385" r="8.003"/><path d="m135.6 479.98a56 56 0 1 1 -21.55-92.62 72.262 72.262 0 0 1 -6.74 7.77l-28.28 28.28a24 24 0 0 0 33.94 33.94l25.36-25.35 2.93-2.93a72.165 72.165 0 0 1 7.76-6.74 54.979 54.979 0 0 1 2.35 9.67 55.89 55.89 0 0 1 -15.77 47.98z"/><path d="m328.36 287.22a56 56 0 0 1 -57.74 13.39 73.113 73.113 0 0 1 6.4-7.31l28.28-28.28a24 24 0 1 0 -33.94-33.94l-28.28 28.28a72.9 72.9 0 0 1 -7.3 6.39 56 56 0 1 1 92.58 21.47z"/><path d="m148.9 266.01a73.339 73.339 0 0 1 -7.64-6.65l-28.29-28.28a24 24 0 1 0 -33.94 33.94l28.28 28.28a72.978 72.978 0 0 1 6.49 7.43 56.012 56.012 0 1 1 35.1-34.72z"/><path d="m328.36 479.98a56.016 56.016 0 0 1 -92.7-57.39 72.612 72.612 0 0 1 7.42 6.48l28.28 28.28a24.01 24.01 0 0 0 40.98-16.97 24.061 24.061 0 0 0 -7.04-16.97l-28.28-28.28a72.273 72.273 0 0 1 -6.65-7.65 56.005 56.005 0 0 1 57.99 92.5z"/><circle cx="96" cy="440.385" r="8.003"/><path d="m209.14 327.25a24 24 0 1 1 -33.94 0 24 24 0 0 1 33.94 0z"/><path d="m209.14 361.19a24 24 0 1 1 0-33.94 24 24 0 0 1 0 33.94z"/></g></g><g fill="#004fac"><path d="m169.54 366.843a32 32 0 1 0 0-45.255 31.9 31.9 0 0 0 .001 45.256zm11.314-33.943a16 16 0 1 1 0 22.628 16.021 16.021 0 0 1 0-22.628z"/><path d="m90.344 434.726a8 8 0 1 0 11.314 0 8 8 0 0 0 -11.314 0z"/><path d="m293.991 253.706a8 8 0 1 0 -11.314 0 8 8 0 0 0 11.314 0z"/><path d="m293.991 446.039a8 8 0 1 0 -11.314 0 8 8 0 0 0 11.314 0z"/><path d="m90.344 242.392a8 8 0 1 0 11.314 0 8 8 0 0 0 -11.314 0z"/><path d="m312 120h-207.922a8 8 0 0 0 -8 8v31a8 8 0 0 0 16 0v-23h199.922a8 8 0 0 0 0-16z"/><path d="m408 80a72 72 0 1 0 72 72 72.081 72.081 0 0 0 -72-72zm0 128a56 56 0 1 1 56-56 56.063 56.063 0 0 1 -56 56z"/><path d="m472 8h-432a32.036 32.036 0 0 0 -32 32v368a32.057 32.057 0 0 0 24.06 31 63.959 63.959 0 1 0 127.9 1h64.04a7.026 7.026 0 0 0 .8-.04v.27a63.966 63.966 0 1 0 127.93-.23h119.27a32.036 32.036 0 0 0 32-32v-368a32.036 32.036 0 0 0 -32-32zm-342.06 466.32a48 48 0 1 1 -31.29-81.84l-25.28 25.27a32.012 32.012 0 0 0 0 45.26 31.828 31.828 0 0 0 22.63 9.37 31.817 31.817 0 0 0 22.63-9.37l25.28-25.28a48.281 48.281 0 0 1 -13.97 36.59zm31.23-50.32a64.236 64.236 0 0 1 61.99 0zm75.68-10.38h-.02a80.137 80.137 0 0 0 -89.43.07 7.76 7.76 0 0 0 -1.32.34 7.976 7.976 0 0 0 -4.46 3.94 78.808 78.808 0 0 0 -6.02 5.44l-28.29 28.29a16 16 0 1 1 -22.62-22.63l28.28-28.29a79.352 79.352 0 0 0 5.45-6.02 7.935 7.935 0 0 0 3.93-4.45 7.3 7.3 0 0 0 .33-1.28 80.013 80.013 0 0 0 -4.82-96.02l-.03-.04h-.01c-1.53-1.83-3.14-3.61-4.85-5.32l-28.28-28.29a15.995 15.995 0 0 1 22.62-22.62l28.29 28.28a79.837 79.837 0 0 0 10.29 8.67l.45.34.05.04c.02.01.05.01.07.02a80.193 80.193 0 0 0 91.17.17c.02 0 .04-.01.06-.01l.02-.01.59-.45c1.58-1.11 3.12-2.27 4.63-3.51l.13-.1.02-.02c0-.01.01-.01.01-.02 1.94-1.6 3.83-3.3 5.65-5.12l28.28-28.28a16 16 0 0 1 22.63 22.62l-28.29 28.29c-1.81 1.81-3.53 3.71-5.15 5.66a.01.01 0 0 1 -.01.01h-.01l-.13.17c-1.22 1.49-2.37 3.03-3.48 4.59l-.44.58v.01c0 .02 0 .03-.01.04a80 80 0 0 0 .17 91.25c.01.02.01.04.02.06l.42.56c.79 1.1 1.6 2.18 2.44 3.24l.25.33.11.15a.01.01 0 0 1 .01.01.037.037 0 0 0 .03.01 79.879 79.879 0 0 0 5.78 6.46l28.29 28.29a16 16 0 0 1 -22.63 22.63l-28.28-28.29c-1.71-1.71-3.49-3.31-5.31-4.83-.01-.01-.01-.01-.01-.02v-.01l-.22-.17q-3-2.475-6.16-4.62zm-163.48-142.94 24.87 24.86a47.987 47.987 0 1 1 45.65-44.86l-25.26-25.26a32 32 0 0 0 -45.26 45.26zm237.59-45.26a32.043 32.043 0 0 0 -45.25 0l-24.85 24.85a48.006 48.006 0 1 1 45.26 45.25l24.84-24.84a32.012 32.012 0 0 0 0-45.26zm11.75 248.9a47.978 47.978 0 0 1 -81.87-36.17l24.87 24.86a32 32 0 0 0 45.25-45.26l-25.25-25.25q1.47-.09 2.94-.09a47.97 47.97 0 0 1 34.06 81.91zm165.29-66.32a16.021 16.021 0 0 1 -16 16h-120a8.813 8.813 0 0 0 -1.36.12v-.01a63.521 63.521 0 0 0 -16.62-28.98 64.353 64.353 0 0 0 -60.34-16.95 64.024 64.024 0 0 1 .25-68.32 63.041 63.041 0 0 0 14.68 1.72 63.969 63.969 0 1 0 -62.11-49.13 64.2 64.2 0 0 1 -68.29.24 64.041 64.041 0 1 0 -62.05 48.89 63.058 63.058 0 0 0 14.3-1.63 64.06 64.06 0 0 1 .25 68.15 64.375 64.375 0 0 0 -59.96 17.03 63.577 63.577 0 0 0 -16.31 27.85 16 16 0 0 1 -10.44-14.98v-336h464zm0-352h-464v-16a16.021 16.021 0 0 1 16-16h432a16.021 16.021 0 0 1 16 16z"/><path d="m48 48h48a8 8 0 0 0 0-16h-48a8 8 0 0 0 0 16z"/><path d="m120 48h8a8 8 0 0 0 0-16h-8a8 8 0 0 0 0 16z"/><path d="m464.078 344h-88a8 8 0 0 0 0 16h88a8 8 0 0 0 0-16z"/><path d="m376.078 384h56a8 8 0 0 0 0-16h-56a8 8 0 0 0 0 16z"/><path d="m464.078 392h-88a8 8 0 0 0 0 16h88a8 8 0 0 0 0-16z"/><path d="m464.078 368h-8a8 8 0 0 0 0 16h8a8 8 0 0 0 0-16z"/><circle cx="408" cy="175" r="8"/><path d="m429.336 151.15a32 32 0 0 0 -42.672 0 8 8 0 0 0 10.671 11.922 16 16 0 0 1 21.33 0 8 8 0 0 0 10.671-11.922z"/><path d="m445.335 133.262a56 56 0 0 0 -74.67 0 8 8 0 0 0 10.67 11.922 40 40 0 0 1 53.33 0 8 8 0 1 0 10.67-11.922z"/></g></g></svg>